<svg width="31" height="31" viewBox="0 0 31 31" fill="none" xmlns="http://www.w3.org/2000/svg">
<path d="M15.5002 28.4167C22.6338 28.4167 28.4168 22.6337 28.4168 15.5C28.4168 11.9374 26.9744 8.71149 24.6417 6.37471C22.3036 4.03248 19.0711 2.58337 15.5002 2.58337C11.9292 2.58337 8.6967 4.03248 6.35858 6.37471C4.02589 8.71149 2.5835 11.9373 2.5835 15.5C2.5835 22.6337 8.36648 28.4167 15.5002 28.4167Z" stroke="#071018" stroke-opacity="0.81" stroke-width="4" stroke-linecap="round" stroke-linejoin="round"/>
<path d="M2.5835 15.5H5.16683" stroke="#071018" stroke-opacity="0.81" stroke-width="4" stroke-linecap="round" stroke-linejoin="round"/>
<path d="M6.3584 6.37476L8.37953 8.39592" stroke="#071018" stroke-opacity="0.81" stroke-width="4" stroke-linecap="round" stroke-linejoin="round"/>
<path d="M15.5 2.58337V5.16671" stroke="#071018" stroke-opacity="0.81" stroke-width="4" stroke-linecap="round" stroke-linejoin="round"/>
<path d="M28.4168 15.5H25.8335" stroke="#071018" stroke-opacity="0.81" stroke-width="4" stroke-linecap="round" stroke-linejoin="round"/>
<path d="M24.6417 6.37476L22.6206 8.39592" stroke="#071018" stroke-opacity="0.81" stroke-width="4" stroke-linecap="round" stroke-linejoin="round"/>
<path d="M15.5 12.9167V20.6667" stroke="#071018" stroke-opacity="0.81" stroke-width="4" stroke-linecap="round" stroke-linejoin="round"/>
<path d="M25.7381 23.3767C23.3763 26.4419 19.6688 28.4167 15.5001 28.4167C11.3314 28.4167 7.62392 26.4419 5.26221 23.3767C8.28028 21.6522 11.7751 20.6667 15.5001 20.6667C19.2251 20.6667 22.7199 21.6522 25.7381 23.3767Z" stroke="#071018" stroke-opacity="0.81" stroke-width="4" stroke-linecap="round" stroke-linejoin="round"/>
</svg>
