<svg version="1.0"
    xmlns="http://www.w3.org/2000/svg" width="24.000000pt" height="24.000000pt" viewBox="0 0 24.000000 24.000000" preserveAspectRatio="xMidYMid meet">

    <g transform="translate(0.000000,24.000000) scale(0.100000,-0.100000)" stroke="none">
        <path d="M82 120 c-21 -56 -26 -80 -17 -80 7 0 16 11 19 25 9 37 73 37 82 0 3
-14 12 -25 19 -25 9 0 4 24 -17 80 -17 44 -36 80 -43 80 -7 0 -26 -36 -43 -80z
m57 20 c9 -28 8 -30 -14 -30 -22 0 -23 2 -14 30 6 17 12 30 14 30 2 0 8 -13
14 -30z"/>
    </g>
</svg>
