<svg version="1.0"
  xmlns="http://www.w3.org/2000/svg" width="24.000000pt" height="24.000000pt" viewBox="0 0 24.000000 24.000000" preserveAspectRatio="xMidYMid meet">

  <g transform="matrix(-1 -1.22465e-16 1.22465e-16 -1 1.0798 23.0024)" stroke="none" class="">
    <path d="M -10.193256378173828 21.99507713317871 C -10.11153793334961 21.986474990844727 -9.857782363891602 21.95636558532715 -9.634133338928223 21.930561065673828 C -6.2320780754089355 21.543476104736328 -3.0880818367004395 19.410202026367188 -1.3590989112854004 16.31781578063965 C -0.7311598062515259 15.190967559814453 -0.27525871992111206 13.793157577514648 -0.08171584457159042 12.38674545288086 C 0.004303211346268654 11.771711349487305 -0.004298695363104343 10.12014389038086 -0.09891965985298157 9.505106925964355 C -0.4817045331001282 7.01055383682251 -1.5096321105957031 4.95469856262207 -3.230013847351074 3.2300167083740234 C -6.331000804901123 0.12902942299842834 -10.915815353393555 -0.8300830721855164 -15.031828880310059 0.7569685578346252 C -15.599553108215332 0.9763170480728149 -16.390928268432617 1.3763058185577393 -16.88123893737793 1.6945761442184448 L -17.31133460998535 1.9741382598876953 L -18.1500186920166 1.1440544128417969 C -19.074726104736328 0.23225228488445282 -19.220956802368164 0.12902942299842834 -19.780078887939453 0.034408461302518845 C -20.816612243652344 -0.14193060994148254 -21.805828094482422 0.5720275640487671 -21.98647117614746 1.6300619840621948 C -22.025177001953125 1.8709152936935425 -22.025177001953125 1.9999439716339111 -21.98647117614746 2.240797519683838 C -21.891849517822266 2.7999212741851807 -21.788623809814453 2.9461536407470703 -20.8768253326416 3.8708584308624268 L -20.05103874206543 4.709544658660889 L -20.347803115844727 5.182649612426758 C -22.829456329345703 9.135226249694824 -22.519786834716797 14.26626205444336 -19.582237243652344 17.913471221923828 C -17.82314682006836 20.094051361083984 -15.393107414245605 21.478960037231445 -12.558780670166016 21.91335678100586 C -12.12868595123291 21.97787094116211 -10.528730392456055 22.033782958984375 -10.193256378173828 21.99507713317871 Z M -11.776006698608398 18.102712631225586 C -15.401711463928223 17.71132469177246 -18.154319763183594 14.631842613220215 -18.1500186920166 10.967432022094727 C -18.14571762084961 9.96530818939209 -17.909164428710938 8.924479484558105 -17.453264236450195 7.961063861846924 L -17.2468204498291 7.509464740753174 L -16.41673469543457 8.330946922302246 C -15.96513557434082 8.782546997070312 -15.504934310913086 9.199738502502441 -15.39741039276123 9.259953498840332 C -14.11572551727295 9.986812591552734 -12.51577091217041 9.062108039855957 -12.51577091217041 7.599784851074219 C -12.51577091217041 7.2428059577941895 -12.601789474487305 6.907331466674805 -12.76092529296875 6.623468399047852 C -12.821138381958008 6.515944480895996 -13.23833179473877 6.0557427406311035 -13.689931869506836 5.604142189025879 L -14.511412620544434 4.774058818817139 L -14.059812545776367 4.567612648010254 C -13.345853805541992 4.232138633728027 -12.68350887298584 4.034294605255127 -11.917938232421875 3.9310719966888428 C -9.548113822937012 3.6171023845672607 -7.105173110961914 4.571913719177246 -5.552527904510498 6.421323299407959 C -3.5310797691345215 8.829855918884277 -3.316032648086548 12.249114036560059 -5.019209861755371 14.881298065185547 C -6.481533527374268 17.134998321533203 -9.11801815032959 18.39517593383789 -11.776006698608398 18.102712631225586 Z " class="" transform="matrix(1 0 0 1 0 0)" stroke-width="0.04300952517850473"></path>
  </g>
</svg>
